<svg id="Capa_1" enable-background="new 0 0 512 512" height="512" viewBox="0 0 512 512" width="512" xmlns="http://www.w3.org/2000/svg"><g><path d="m426.661 137.457c4.143 0 7.5-3.358 7.5-7.5v-50.812c0-1.915-.775-3.882-2.196-5.303l-71.645-71.645c-1.35-1.348-3.296-2.197-5.304-2.197h-224.77c-9.956 0-18.056 8.1-18.056 18.056v55.079h-55.08c-9.955 0-18.055 8.1-18.055 18.056v402.754c0 9.956 8.1 18.056 18.055 18.056h117.498c4.143 0 7.5-3.358 7.5-7.5s-3.357-7.5-7.5-7.5h-117.497c-1.685 0-3.055-1.371-3.055-3.056v-402.755c0-1.685 1.37-3.056 3.055-3.056h62.58 154.69v23.51h-179.764c-8.58 0-15.561 6.98-15.561 15.561v61.513c0 8.581 6.98 15.561 15.561 15.561h210.848c8.581 0 15.562-6.98 15.562-15.561v-28.939h25v42.669c-16.548 5.784-32.077 16.505-43.714 31.331h-207.696c-4.143 0-7.5 3.358-7.5 7.5s3.357 7.5 7.5 7.5h198.047c-3.34 6.454-5.927 13.267-7.704 20.333h-190.343c-4.143 0-7.5 3.358-7.5 7.5s3.357 7.5 7.5 7.5h187.828c-.254 2.916-.374 6.009-.374 8.455 0 3.498.222 7.773.728 11.878h-188.182c-4.143 0-7.5 3.358-7.5 7.5s3.357 7.5 7.5 7.5h191.278c2.071 7.094 4.959 13.911 8.627 20.333h-199.905c-4.143 0-7.5 3.358-7.5 7.5s3.357 7.5 7.5 7.5h210.51c10.747 12.464 24.678 22.278 40.899 27.929v111.236c0 1.685-1.371 3.056-3.056 3.056h-133.361c-4.143 0-7.5 3.358-7.5 7.5s3.357 7.5 7.5 7.5h133.361c9.956 0 18.056-8.1 18.056-18.056v-55.08h55.079c9.956 0 18.056-8.1 18.056-18.055v-51.417c23.815-17.639 38.783-45.495 38.783-76.825 0-30.965-14.689-59.01-38.783-76.805v-50.806c0-4.142-3.357-7.5-7.5-7.5s-7.5 3.358-7.5 7.5v41.718c-12.907-6.273-27.086-9.544-41.653-9.544-5.545 0-11.06.477-16.481 1.42v-46.272c0-2.061-.865-3.972-2.196-5.303l-71.645-71.645c-1.332-1.332-3.245-2.197-5.304-2.197h-154.69v-55.076c0-1.685 1.371-3.056 3.056-3.056h217.27v53.589c0 9.956 8.1 18.055 18.056 18.055h53.589v43.312c-.002 4.143 3.355 7.501 7.498 7.501zm-7.5 283.353c0 1.685-1.371 3.055-3.056 3.055h-55.079v-37.27c5.396.934 11.142 1.409 16.481 1.409 14.518 0 28.738-3.248 41.653-9.522v42.328zm-41.654-208.642c44.197 0 80.437 35.644 80.437 80.399 0 44.81-36.365 80.437-80.437 80.437-44.852 0-80.437-36.603-80.437-80.437.001-43.804 35.505-80.399 80.437-80.399zm-88.126-113.427 46.038 46.038c-4.607 0-38.633 0-42.982 0-1.686 0-3.056-1.372-3.056-3.056 0-4.361 0-36.016 0-42.982zm3.056 61.038h13.589v28.939c0 .31-.252.561-.562.561h-210.847c-.309 0-.561-.251-.561-.561v-61.513c0-.31.252-.561.561-.561h179.765v15.079c-.001 9.957 8.099 18.056 18.055 18.056zm73.135-88.134c-1.685 0-3.056-1.371-3.056-3.055v-42.984l46.038 46.038h-42.982z"/><path d="m94.617 390.113h210.848c4.143 0 7.5-3.358 7.5-7.5s-3.357-7.5-7.5-7.5h-210.848c-4.143 0-7.5 3.358-7.5 7.5s3.357 7.5 7.5 7.5z"/><path d="m94.617 425.446h210.848c4.143 0 7.5-3.358 7.5-7.5s-3.357-7.5-7.5-7.5h-210.848c-4.143 0-7.5 3.358-7.5 7.5s3.357 7.5 7.5 7.5z"/><path d="m94.617 460.779h210.848c4.143 0 7.5-3.358 7.5-7.5s-3.357-7.5-7.5-7.5h-210.848c-4.143 0-7.5 3.358-7.5 7.5s3.357 7.5 7.5 7.5z"/><path d="m345.688 292.567-10.745 10.745c-8.678 8.678-9.138 22.443-1.047 31.338 8.85 9.73 23.69 9.659 32.566.783l11.045-11.045 11.045 11.045c8.883 8.886 23.719 8.94 32.565-.78 8.092-8.894 7.633-22.66-1.047-31.34l-10.744-10.744 10.745-10.745c8.679-8.68 9.138-22.445 1.045-31.339-8.833-9.708-23.671-9.676-32.563-.781l-11.046 11.045-11.045-11.044c-8.862-8.864-23.701-8.96-32.565.78-8.093 8.895-7.633 22.661 1.047 31.339zm-.696-31.988c2.902-3.187 7.829-3.302 10.864-.269l13.598 13.598c2.15 2.152 5.011 3.337 8.054 3.337 3.041 0 5.901-1.185 8.052-3.336l13.601-13.6c3.011-3.01 7.943-2.938 10.862.27 2.648 2.91 2.398 7.683-.557 10.638l-13.3 13.298c-2.15 2.151-3.335 5.011-3.335 8.053s1.185 5.902 3.336 8.052l13.298 13.298c2.956 2.956 3.206 7.729.559 10.639-2.834 3.113-7.75 3.383-10.863.269l-13.601-13.601c-2.151-2.15-5.011-3.334-8.052-3.334-3.043 0-5.902 1.185-8.053 3.335l-13.6 13.6c-3.111 3.113-8.03 2.844-10.863-.27-2.647-2.91-2.397-7.682.558-10.638l13.3-13.299c4.438-4.439 4.438-11.663-.001-16.104l-13.299-13.299c-2.956-2.955-3.206-7.727-.558-10.637z"/></g></svg>