<?xml version="1.0" encoding="iso-8859-1"?>
<!-- Generator: Adobe Illustrator 19.0.0, SVG Export Plug-In . SVG Version: 6.00 Build 0)  -->
<svg version="1.1" id="Capa_1" xmlns="http://www.w3.org/2000/svg" xmlns:xlink="http://www.w3.org/1999/xlink" x="0px" y="0px"
	 viewBox="0 0 512.001 512.001" style="enable-background:new 0 0 512.001 512.001;" xml:space="preserve">
<g>
	<g>
		<path d="M167.253,198.001c-5.522,0-10,4.478-10,10v125.998c0,5.522,4.478,10,10,10c5.522,0,10-4.478,10-10V208.001
			C177.253,202.479,172.775,198.001,167.253,198.001z"/>
	</g>
</g>
<g>
	<g>
		<path d="M247.253,198.001c-5.522,0-10,4.478-10,10v125.998c0,5.522,4.478,10,10,10c5.522,0,10-4.478,10-10V208.001
			C257.253,202.479,252.775,198.001,247.253,198.001z"/>
	</g>
</g>
<g>
	<g>
		<path d="M327.253,198.001c-5.522,0-10,4.478-10,10v125.998c0,5.522,4.478,10,10,10c5.522,0,10-4.478,10-10V208.001
			C337.253,202.479,332.775,198.001,327.253,198.001z"/>
	</g>
</g>
<g>
	<g>
		<path d="M407.253,198.001c-5.522,0-10,4.478-10,10v125.998c0,5.522,4.478,10,10,10c5.522,0,10-4.478,10-10V208.001
			C417.253,202.479,412.775,198.001,407.253,198.001z"/>
	</g>
</g>
<g>
	<g>
		<path d="M471.837,379.926l40-218.135c0.535-2.919-0.254-5.926-2.153-8.205c-1.9-2.28-4.715-3.599-7.683-3.599h-44V64
			c0-5.522-4.478-10-10-10h-182V10c0-5.522-4.478-10-10-10h-104c-5.522,0-10,4.478-10,10v139.987H88.93L73.856,62.306
			C73.031,57.507,68.87,54,64.001,54h-54c-5.522,0-10,4.478-10,10v40c0,5.522,4.478,10,10,10h52.448l45.552,264.976v13.019
			c0,28.976,22.12,52.882,50.36,55.722c-4.063,6.464-6.424,14.102-6.424,22.284c0,23.159,18.841,42,42,42s42-18.841,42-42
			c0-8.062-2.288-15.597-6.242-22h120.61c-3.954,6.403-6.242,13.938-6.242,22c0,23.159,18.841,42,42,42s42-18.841,42-42
			c0-8.062-2.288-15.597-6.242-22h40.18c5.522,0,10-4.478,10-10c0-5.522-4.478-10-10-10H164.007
			c-19.854-0.001-36.006-16.153-36.006-36.007v-3.872h334v0C466.828,388.122,470.967,384.674,471.837,379.926z M20.001,94V74h35.572
			l3.438,20H20.001z M386.065,448c12.131,0,22,9.869,22,22c0,12.131-9.869,22-22,22c-12.131,0-22-9.869-22-22
			C364.065,457.869,373.934,448,386.065,448z M193.938,448c12.131,0,22,9.869,22,22c0,12.131-9.869,22-22,22s-22-9.869-22-22
			C171.938,457.869,181.807,448,193.938,448z M266.128,114h86.889c5.522,0,10-4.478,10-10c0-5.522-4.478-10-10-10h-86.889V74
			h171.873v75.987H266.128V114z M162.001,20h84v129.987h-84V20z M453.668,368.122H126.429L92.368,169.987h397.633L453.668,368.122z"
			/>
	</g>
</g>
<g>
	<g>
		<path d="M411.18,96.93c-1.87-1.86-4.45-2.93-7.07-2.93c-2.63,0-5.21,1.069-7.08,2.93c-1.859,1.86-2.92,4.44-2.92,7.07
			s1.061,5.21,2.92,7.069c1.87,1.861,4.451,2.931,7.08,2.931c2.62,0,5.2-1.07,7.07-2.931c1.86-1.859,2.93-4.439,2.93-7.069
			S413.041,98.79,411.18,96.93z"/>
	</g>
</g>
<g>
</g>
<g>
</g>
<g>
</g>
<g>
</g>
<g>
</g>
<g>
</g>
<g>
</g>
<g>
</g>
<g>
</g>
<g>
</g>
<g>
</g>
<g>
</g>
<g>
</g>
<g>
</g>
<g>
</g>
</svg>
