<?xml version="1.0" encoding="iso-8859-1"?>
<!-- Generator: Adobe Illustrator 19.0.0, SVG Export Plug-In . SVG Version: 6.00 Build 0)  -->
<svg version="1.1" id="Capa_1" xmlns="http://www.w3.org/2000/svg" xmlns:xlink="http://www.w3.org/1999/xlink" x="0px" y="0px"
	 viewBox="0 0 450.391 450.391" style="enable-background:new 0 0 450.391 450.391;" xml:space="preserve">
<g>
	<g>
		<path style="fill:#00EFD1;" d="M439.902,82.828l-25.078,104.49c-4.546,19.453-20.889,33.91-40.751,36.049l-222.041,22.465h-4.18
			L91.951,78.126h2.09L439.902,82.828z"/>
		<g>
			<circle style="fill:#00ACEA;" cx="342.204" cy="397.343" r="36.571"/>
			<circle style="fill:#00ACEA;" cx="143.673" cy="397.343" r="36.571"/>
		</g>
	</g>
	<g>
		<path style="fill:#083863;" d="M143.673,444.363c-25.969,0-47.02-21.052-47.02-47.02c0-25.969,21.052-47.02,47.02-47.02
			s47.02,21.052,47.02,47.02l0,0C190.694,423.311,169.642,444.363,143.673,444.363z M143.673,371.22
			c-14.427,0-26.122,11.695-26.122,26.122c0,14.427,11.695,26.122,26.122,26.122s26.122-11.695,26.122-26.122
			C169.796,382.916,158.101,371.22,143.673,371.22z"/>
		<path style="fill:#083863;" d="M342.204,444.363c-25.969,0-47.02-21.052-47.02-47.02c0-25.969,21.052-47.02,47.02-47.02
			c25.969,0,47.02,21.052,47.02,47.02l0,0C389.224,423.311,368.173,444.363,342.204,444.363z M342.204,371.22
			c-14.427,0-26.122,11.695-26.122,26.122c0,14.427,11.695,26.122,26.122,26.122c14.427,0,26.122-11.695,26.122-26.122
			C368.327,382.916,356.631,371.22,342.204,371.22z"/>
		<path style="fill:#083863;" d="M448.261,76.037c-2.176-2.377-5.153-3.865-8.359-4.18L99.788,67.155L90.384,38.42
			C83.759,19.211,65.771,6.243,45.453,6.028H10.449C4.678,6.028,0,10.707,0,16.477s4.678,10.449,10.449,10.449h35.004
			c11.361,0.251,21.365,7.546,25.078,18.286l66.351,200.098l-5.224,12.016c-5.827,15.026-4.077,31.938,4.702,45.453
			c8.695,13.274,23.323,21.466,39.184,21.943h203.233c5.771,0,10.449-4.678,10.449-10.449c0-5.771-4.678-10.449-10.449-10.449
			H175.543c-8.906-0.403-17.074-5.07-21.943-12.539c-4.687-7.51-5.651-16.762-2.612-25.078l4.18-9.404l219.951-22.988
			c24.16-2.661,44.034-20.233,49.633-43.886l25.078-105.012C450.96,81.893,450.36,78.492,448.261,76.037z M404.376,185.228
			c-3.392,15.226-16.319,26.457-31.869,27.69l-217.339,22.465L106.58,88.053l320.261,4.702L404.376,185.228z"/>
	</g>
</g>
<g>
</g>
<g>
</g>
<g>
</g>
<g>
</g>
<g>
</g>
<g>
</g>
<g>
</g>
<g>
</g>
<g>
</g>
<g>
</g>
<g>
</g>
<g>
</g>
<g>
</g>
<g>
</g>
<g>
</g>
</svg>
